<svg width="65" height="25" viewBox="0 0 65 25" fill="none" xmlns="http://www.w3.org/2000/svg">
<g filter="url(#filter0_d_1_1044)">
<path d="M14.568 15.904C14.392 15.952 14.112 16 13.728 16.048C13.36 16.096 12.992 16.12 12.624 16.12C12.256 16.12 11.928 16.088 11.64 16.024C11.368 15.976 11.136 15.88 10.944 15.736C10.752 15.592 10.608 15.392 10.512 15.136C10.416 14.88 10.368 14.544 10.368 14.128V10.384H5.76V15.904C5.584 15.952 5.304 16 4.92 16.048C4.552 16.096 4.184 16.12 3.816 16.12C3.448 16.12 3.12 16.088 2.832 16.024C2.56 15.976 2.328 15.88 2.136 15.736C1.944 15.592 1.8 15.392 1.704 15.136C1.608 14.88 1.56 14.544 1.56 14.128V1.456C1.736 1.424 2.016 1.384 2.4 1.336C2.784 1.272 3.152 1.24 3.504 1.24C3.872 1.24 4.192 1.272 4.464 1.336C4.752 1.384 4.992 1.48 5.184 1.624C5.376 1.768 5.52 1.968 5.616 2.224C5.712 2.48 5.76 2.816 5.76 3.232V7.072H10.368V1.456C10.544 1.424 10.824 1.384 11.208 1.336C11.592 1.272 11.96 1.24 12.312 1.24C12.68 1.24 13 1.272 13.272 1.336C13.56 1.384 13.8 1.48 13.992 1.624C14.184 1.768 14.328 1.968 14.424 2.224C14.52 2.48 14.568 2.816 14.568 3.232V15.904ZM23.291 16.384C22.347 16.384 21.467 16.256 20.651 16C19.851 15.728 19.147 15.328 18.539 14.8C17.947 14.272 17.475 13.608 17.123 12.808C16.787 12.008 16.619 11.072 16.619 10C16.619 8.944 16.787 8.04 17.123 7.288C17.475 6.52 17.931 5.896 18.491 5.416C19.051 4.92 19.691 4.56 20.411 4.336C21.131 4.096 21.867 3.976 22.619 3.976C23.467 3.976 24.235 4.104 24.923 4.36C25.627 4.616 26.227 4.968 26.723 5.416C27.235 5.864 27.627 6.4 27.899 7.024C28.187 7.648 28.331 8.328 28.331 9.064C28.331 9.608 28.179 10.024 27.875 10.312C27.571 10.6 27.147 10.784 26.603 10.864L20.675 11.752C20.851 12.28 21.211 12.68 21.755 12.952C22.299 13.208 22.923 13.336 23.627 13.336C24.283 13.336 24.899 13.256 25.475 13.096C26.067 12.92 26.547 12.72 26.915 12.496C27.171 12.656 27.387 12.88 27.563 13.168C27.739 13.456 27.827 13.76 27.827 14.08C27.827 14.8 27.491 15.336 26.819 15.688C26.307 15.96 25.731 16.144 25.091 16.24C24.451 16.336 23.851 16.384 23.291 16.384ZM22.619 6.952C22.235 6.952 21.899 7.016 21.611 7.144C21.339 7.272 21.115 7.44 20.939 7.648C20.763 7.84 20.627 8.064 20.531 8.32C20.451 8.56 20.403 8.808 20.387 9.064L24.491 8.392C24.443 8.072 24.267 7.752 23.963 7.432C23.659 7.112 23.211 6.952 22.619 6.952ZM35.0369 13.408C35.3089 13.408 35.6049 13.384 35.9249 13.336C36.2609 13.272 36.5089 13.192 36.6689 13.096V11.176L34.9409 11.32C34.4929 11.352 34.1249 11.448 33.8369 11.608C33.5489 11.768 33.4049 12.008 33.4049 12.328C33.4049 12.648 33.5249 12.912 33.7649 13.12C34.0209 13.312 34.4449 13.408 35.0369 13.408ZM34.8449 3.976C35.7089 3.976 36.4929 4.064 37.1969 4.24C37.9169 4.416 38.5249 4.688 39.0209 5.056C39.5329 5.408 39.9249 5.864 40.1969 6.424C40.4689 6.968 40.6049 7.616 40.6049 8.368V13.744C40.6049 14.16 40.4849 14.504 40.2449 14.776C40.0209 15.032 39.7489 15.256 39.4289 15.448C38.3889 16.072 36.9249 16.384 35.0369 16.384C34.1889 16.384 33.4209 16.304 32.7329 16.144C32.0609 15.984 31.4769 15.744 30.9809 15.424C30.5009 15.104 30.1249 14.696 29.8529 14.2C29.5969 13.704 29.4689 13.128 29.4689 12.472C29.4689 11.368 29.7969 10.52 30.4529 9.928C31.1089 9.336 32.1249 8.968 33.5009 8.824L36.6449 8.488V8.32C36.6449 7.856 36.4369 7.528 36.0209 7.336C35.6209 7.128 35.0369 7.024 34.2689 7.024C33.6609 7.024 33.0689 7.088 32.4929 7.216C31.9169 7.344 31.3969 7.504 30.9329 7.696C30.7249 7.552 30.5489 7.336 30.4049 7.048C30.2609 6.744 30.1889 6.432 30.1889 6.112C30.1889 5.696 30.2849 5.368 30.4769 5.128C30.6849 4.872 30.9969 4.656 31.4129 4.48C31.8769 4.304 32.4209 4.176 33.0449 4.096C33.6849 4.016 34.2849 3.976 34.8449 3.976ZM42.3456 10.168C42.3456 9.112 42.5056 8.2 42.8256 7.432C43.1456 6.648 43.5856 6 44.1456 5.488C44.7216 4.976 45.3856 4.6 46.1376 4.36C46.9056 4.104 47.7296 3.976 48.6096 3.976C48.9296 3.976 49.2416 4.008 49.5456 4.072C49.8496 4.12 50.0976 4.184 50.2896 4.264V0.375999C50.4496 0.327999 50.7056 0.279999 51.0576 0.232C51.4096 0.168 51.7696 0.136 52.1376 0.136C52.4896 0.136 52.8016 0.159999 53.0736 0.207999C53.3616 0.255999 53.6016 0.351999 53.7936 0.495999C53.9856 0.639999 54.1296 0.839999 54.2256 1.096C54.3216 1.336 54.3696 1.656 54.3696 2.056V13.432C54.3696 14.184 54.0176 14.784 53.3136 15.232C52.8496 15.536 52.2496 15.8 51.5136 16.024C50.7776 16.264 49.9296 16.384 48.9696 16.384C47.9296 16.384 46.9936 16.24 46.1616 15.952C45.3456 15.664 44.6496 15.248 44.0736 14.704C43.5136 14.16 43.0816 13.512 42.7776 12.76C42.4896 11.992 42.3456 11.128 42.3456 10.168ZM49.1616 7.168C48.2976 7.168 47.6336 7.416 47.1696 7.912C46.7056 8.408 46.4736 9.16 46.4736 10.168C46.4736 11.16 46.6896 11.912 47.1216 12.424C47.5536 12.92 48.1776 13.168 48.9936 13.168C49.2816 13.168 49.5376 13.128 49.7616 13.048C50.0016 12.952 50.1856 12.848 50.3136 12.736V7.456C49.9936 7.264 49.6096 7.168 49.1616 7.168ZM55.9421 14.056C55.9421 13.384 56.1501 12.824 56.5661 12.376C56.9821 11.928 57.5501 11.704 58.2701 11.704C58.9901 11.704 59.5581 11.928 59.9741 12.376C60.3901 12.824 60.5981 13.384 60.5981 14.056C60.5981 14.728 60.3901 15.288 59.9741 15.736C59.5581 16.184 58.9901 16.408 58.2701 16.408C57.5501 16.408 56.9821 16.184 56.5661 15.736C56.1501 15.288 55.9421 14.728 55.9421 14.056Z" fill="white"/>
</g>
<defs>
<filter id="filter0_d_1_1044" x="-2.44" y="0.135986" width="67.0381" height="24.272" filterUnits="userSpaceOnUse" color-interpolation-filters="sRGB">
<feFlood flood-opacity="0" result="BackgroundImageFix"/>
<feColorMatrix in="SourceAlpha" type="matrix" values="0 0 0 0 0 0 0 0 0 0 0 0 0 0 0 0 0 0 127 0" result="hardAlpha"/>
<feOffset dy="4"/>
<feGaussianBlur stdDeviation="2"/>
<feComposite in2="hardAlpha" operator="out"/>
<feColorMatrix type="matrix" values="0 0 0 0 0 0 0 0 0 0 0 0 0 0 0 0 0 0 0.25 0"/>
<feBlend mode="normal" in2="BackgroundImageFix" result="effect1_dropShadow_1_1044"/>
<feBlend mode="normal" in="SourceGraphic" in2="effect1_dropShadow_1_1044" result="shape"/>
</filter>
</defs>
</svg>
